Jawan Of Vellimala (2012) - Ap - DVDrip - XVID - Mp3 - 1cd - Team TMR

 
http://img850.imageshack.us/img850/6965/13039939.jpg


Source					 : DVD 9 [DDR]
Ripper					 : SRK
Format                                   : AVI
Format/Info                              : Audio Video Interleave
File size                                : 696 MiB
Duration                                 : 2h 7mn
Overall bit rate                         : 763 Kbps
Writing application                      : VirtualDubMod 1.5.10.2 (build 2540/release)
Writing library                          : VirtualDubMod build 2540/release

Video
ID                                       : 0
Format                                   : MPEG-4 Visual
Format profile                           : Advanced Simple@L5
Format settings, BVOP                    : 2
Format settings, QPel                    : No
Format settings, GMC                     : No warppoints
Format settings, Matrix                  : Default (H.263)
Codec ID                                 : XVID
Codec ID/Hint                            : XviD
Duration                                 : 2h 7mn
Bit rate                                 : 673 Kbps
Width                                    : 608 pixels
Height                                   : 256 pixels
Display aspect ratio                     : 2.40:1
Frame rate                               : 23.976 fps
Color space                              : YUV
Chroma subsampling                       : 4:2:0
Bit depth                                : 8 bits
Scan type                                : Progressive
Compression mode                         : Lossy
Bits/(Pixel*Frame)                       : 0.180
Stream size                              : 615 MiB (88%)
Writing library                          : XviD 1.2.1 (UTC 2008-12-04)

Audio
ID                                       : 1
Format                                   : MPEG Audio
Format version                           : Version 1
Format profile                           : Layer 3
Mode                                     : Joint stereo
Mode extension                           : MS Stereo
Codec ID                                 : 55
Codec ID/Hint                            : MP3
Duration                                 : 2h 7mn
Bit rate mode                            : Constant
Bit rate                                 : 80.0 Kbps
Channel(s)                               : 2 channels
Sampling rate                            : 32.0 KHz
Compression mode                         : Lossy
Stream size                              : 73.0 MiB (10%)
Alignment                                : Aligned on interleaves
Interleave, duration                     : 42 ms (1.00 video frame)
Interleave, preload duration             : 504 ms
Writing library                          : LAME3.99r
Encoding settings                        : -m j -V 4 -q 2 -lowpass 13.5 -b 80




 
http://img822.imageshack.us/img822/3922/54457316.png 
http://img197.imageshack.us/img197/4081/14028764.png 
http://img692.imageshack.us/img692/2186/95930667.png 
http://img203.imageshack.us/img203/8396/14211443.png 
http://img5.imageshack.us/img5/1230/62275031.png 
http://img833.imageshack.us/img833/4567/60681991.png 
http://img38.imageshack.us/img38/2766/78388104.png 
http://img844.imageshack.us/img844/540/82878702.png 
http://img717.imageshack.us/img717/8019/29537445.png 
http://img442.imageshack.us/img442/6563/59480791.png 
http://img839.imageshack.us/img839/872/31601890.png 
http://img22.imageshack.us/img22/8655/44867574.png